<svg width="400" height="300" viewBox="0 0 400 300" xmlns="http://www.w3.org/2000/svg">
    <!-- Auroch body -->
    <ellipse cx="200" cy="200" rx="85" ry="50" fill="white" stroke="#333" stroke-width="2"/>
    
    <!-- Auroch head -->
    <ellipse cx="280" cy="160" rx="35" ry="30" fill="white" stroke="#333" stroke-width="2"/>
    
    <!-- Snout -->
    <ellipse cx="310" cy="170" rx="12" ry="10" fill="white" stroke="#333" stroke-width="2"/>
    
    <!-- Massive curved horns -->
    <path d="M 270 140 Q 260 110 240 100 Q 230 105 235 120" fill="none" stroke="#333" stroke-width="5" stroke-linecap="round"/>
    <path d="M 290 140 Q 300 110 320 100 Q 330 105 325 120" fill="none" stroke="#333" stroke-width="5" stroke-linecap="round"/>
    
    <!-- Horn tips -->
    <circle cx="235" cy="105" r="3" fill="white" stroke="#333" stroke-width="2"/>
    <circle cx="325" cy="105" r="3" fill="white" stroke="#333" stroke-width="2"/>
    
    <!-- Legs -->
    <rect x="160" y="230" width="18" height="40" fill="white" stroke="#333" stroke-width="2"/>
    <rect x="185" y="230" width="18" height="40" fill="white" stroke="#333" stroke-width="2"/>
    <rect x="210" y="230" width="18" height="40" fill="white" stroke="#333" stroke-width="2"/>
    <rect x="235" y="230" width="18" height="40" fill="white" stroke="#333" stroke-width="2"/>
    
    <!-- Hooves -->
    <ellipse cx="169" cy="275" rx="10" ry="5" fill="white" stroke="#333" stroke-width="2"/>
    <ellipse cx="194" cy="275" rx="10" ry="5" fill="white" stroke="#333" stroke-width="2"/>
    <ellipse cx="219" cy="275" rx="10" ry="5" fill="white" stroke="#333" stroke-width="2"/>
    <ellipse cx="244" cy="275" rx="10" ry="5" fill="white" stroke="#333" stroke-width="2"/>
    
    <!-- Cloven hoof marks -->
    <path d="M 169 270 L 169 280" stroke="#333" stroke-width="1"/>
    <path d="M 194 270 L 194 280" stroke="#333" stroke-width="1"/>
    <path d="M 219 270 L 219 280" stroke="#333" stroke-width="1"/>
    <path d="M 244 270 L 244 280" stroke="#333" stroke-width="1"/>
    
    <!-- Ears -->
    <ellipse cx="265" cy="145" rx="8" ry="15" fill="white" stroke="#333" stroke-width="2"/>
    <ellipse cx="295" cy="145" rx="8" ry="15" fill="white" stroke="#333" stroke-width="2"/>
    
    <!-- Eyes -->
    <circle cx="275" cy="155" r="4" fill="white" stroke="#333" stroke-width="2"/>
    <circle cx="285" cy="155" r="4" fill="white" stroke="#333" stroke-width="2"/>
    
    <!-- Nostrils -->
    <ellipse cx="315" cy="168" rx="2" ry="3" fill="white" stroke="#333" stroke-width="1"/>
    <ellipse cx="315" cy="172" rx="2" ry="3" fill="white" stroke="#333" stroke-width="1"/>
    
    <!-- Mouth -->
    <path d="M 305 180 Q 315 185 320 180" fill="none" stroke="#333" stroke-width="2"/>
    
    <!-- Muscular neck -->
    <path d="M 250 175 Q 230 185 215 195" fill="none" stroke="#333" stroke-width="6"/>
    
    <!-- Dewlap (throat flap) -->
    <path d="M 290 185 Q 285 195 280 190 Q 275 195 270 185" fill="white" stroke="#333" stroke-width="2"/>
    
    <!-- Shoulder hump -->
    <ellipse cx="210" cy="170" rx="25" ry="18" fill="white" stroke="#333" stroke-width="2"/>
    
    <!-- Tail -->
    <path d="M 115 200 Q 85 195 70 210 Q 80 225 110 220" fill="white" stroke="#333" stroke-width="2"/>
    
    <!-- Tail tuft -->
    <ellipse cx="75" cy="215" rx="8" ry="12" fill="white" stroke="#333" stroke-width="2"/>
    
    <!-- Body hair texture -->
    <path d="M 140 180 L 130 175" stroke="#333" stroke-width="1"/>
    <path d="M 150 185 L 140 180" stroke="#333" stroke-width="1"/>
    <path d="M 160 190 L 150 185" stroke="#333" stroke-width="1"/>
    <path d="M 170 195 L 160 190" stroke="#333" stroke-width="1"/>
    <path d="M 180 200 L 170 195" stroke="#333" stroke-width="1"/>
    
    <path d="M 250 145 L 240 140" stroke="#333" stroke-width="1"/>
    <path d="M 260 150 L 250 145" stroke="#333" stroke-width="1"/>
    <path d="M 270 155 L 260 150" stroke="#333" stroke-width="1"/>
    
    <!-- Muscular definition -->
    <path d="M 170 175 Q 180 170 190 175" fill="none" stroke="#333" stroke-width="1"/>
    <path d="M 190 180 Q 200 175 210 180" fill="none" stroke="#333" stroke-width="1"/>
    <path d="M 150 190 Q 160 185 170 190" fill="none" stroke="#333" stroke-width="1"/>
    
    <!-- Mane on neck -->
    <path d="M 245 160 Q 235 150 240 170" fill="white" stroke="#333" stroke-width="2"/>
    <path d="M 255 155 Q 245 145 250 165" fill="white" stroke="#333" stroke-width="2"/>
    <path d="M 265 155 Q 255 145 260 165" fill="white" stroke="#333" stroke-width="2"/>
</svg>
