<svg width="400" height="300" viewBox="0 0 400 300" xmlns="http://www.w3.org/2000/svg">
    <!-- Barbary Lion body - more muscular -->
    <ellipse cx="200" cy="190" rx="85" ry="45" fill="white" stroke="#333" stroke-width="2"/>
    
    <!-- Powerful chest -->
    <ellipse cx="230" cy="175" rx="35" ry="25" fill="white" stroke="#333" stroke-width="2"/>
    
    <!-- Head - more proportional -->
    <ellipse cx="285" cy="150" rx="38" ry="42" fill="white" stroke="#333" stroke-width="2"/>
    
    <!-- Magnificent mane (distinctive feature) -->
    <circle cx="270" cy="150" r="55" fill="white" stroke="#333" stroke-width="2" opacity="0.7"/>
    
    <!-- Mane details -->
    <path d="M 220 120 Q 210 100 230 110 Q 250 100 270 110 Q 290 100 310 110 Q 320 120 310 140" fill="white" stroke="#333" stroke-width="2"/>
    <path d="M 215 140 Q 200 130 210 150 Q 220 170 240 160" fill="white" stroke="#333" stroke-width="2"/>
    <path d="M 325 140 Q 340 130 330 150 Q 320 170 300 160" fill="white" stroke="#333" stroke-width="2"/>
    <path d="M 230 200 Q 220 190 240 190 Q 270 185 300 190 Q 320 190 310 200" fill="white" stroke="#333" stroke-width="2"/>
    
    <!-- Mane texture -->
    <path d="M 225 125 L 215 120" stroke="#333" stroke-width="2"/>
    <path d="M 235 115 L 225 110" stroke="#333" stroke-width="2"/>
    <path d="M 245 110 L 235 105" stroke="#333" stroke-width="2"/>
    <path d="M 255 105 L 245 100" stroke="#333" stroke-width="2"/>
    <path d="M 265 105 L 255 100" stroke="#333" stroke-width="2"/>
    <path d="M 275 105 L 285 100" stroke="#333" stroke-width="2"/>
    <path d="M 285 110 L 295 105" stroke="#333" stroke-width="2"/>
    <path d="M 295 115 L 305 110" stroke="#333" stroke-width="2"/>
    <path d="M 305 125 L 315 120" stroke="#333" stroke-width="2"/>
    
    <!-- Snout -->
    <ellipse cx="305" cy="160" rx="12" ry="10" fill="white" stroke="#333" stroke-width="2"/>
    
    <!-- Legs -->
    <rect x="165" y="215" width="16" height="40" fill="white" stroke="#333" stroke-width="2"/>
    <rect x="190" y="215" width="16" height="40" fill="white" stroke="#333" stroke-width="2"/>
    <rect x="215" y="215" width="16" height="40" fill="white" stroke="#333" stroke-width="2"/>
    <rect x="240" y="215" width="16" height="40" fill="white" stroke="#333" stroke-width="2"/>
    
    <!-- Paws with claws -->
    <ellipse cx="173" cy="260" rx="10" ry="6" fill="white" stroke="#333" stroke-width="2"/>
    <ellipse cx="198" cy="260" rx="10" ry="6" fill="white" stroke="#333" stroke-width="2"/>
    <ellipse cx="223" cy="260" rx="10" ry="6" fill="white" stroke="#333" stroke-width="2"/>
    <ellipse cx="248" cy="260" rx="10" ry="6" fill="white" stroke="#333" stroke-width="2"/>
    
    <!-- Claws -->
    <path d="M 168 255 L 163 265" stroke="#333" stroke-width="2" stroke-linecap="round"/>
    <path d="M 173 255 L 168 265" stroke="#333" stroke-width="2" stroke-linecap="round"/>
    <path d="M 178 255 L 183 265" stroke="#333" stroke-width="2" stroke-linecap="round"/>
    
    <path d="M 193 255 L 188 265" stroke="#333" stroke-width="2" stroke-linecap="round"/>
    <path d="M 198 255 L 193 265" stroke="#333" stroke-width="2" stroke-linecap="round"/>
    <path d="M 203 255 L 208 265" stroke="#333" stroke-width="2" stroke-linecap="round"/>
    
    <path d="M 218 255 L 213 265" stroke="#333" stroke-width="2" stroke-linecap="round"/>
    <path d="M 223 255 L 218 265" stroke="#333" stroke-width="2" stroke-linecap="round"/>
    <path d="M 228 255 L 233 265" stroke="#333" stroke-width="2" stroke-linecap="round"/>
    
    <path d="M 243 255 L 238 265" stroke="#333" stroke-width="2" stroke-linecap="round"/>
    <path d="M 248 255 L 243 265" stroke="#333" stroke-width="2" stroke-linecap="round"/>
    <path d="M 253 255 L 258 265" stroke="#333" stroke-width="2" stroke-linecap="round"/>
    
    <!-- Ears -->
    <ellipse cx="250" cy="125" rx="8" ry="15" fill="white" stroke="#333" stroke-width="2"/>
    <ellipse cx="290" cy="125" rx="8" ry="15" fill="white" stroke="#333" stroke-width="2"/>
    
    <!-- Eyes -->
    <circle cx="265" cy="145" r="5" fill="white" stroke="#333" stroke-width="2"/>
    <circle cx="275" cy="145" r="5" fill="white" stroke="#333" stroke-width="2"/>
    
    <!-- Nose -->
    <polygon points="310,155 305,160 315,160" fill="white" stroke="#333" stroke-width="2"/>
    
    <!-- Mouth -->
    <path d="M 300 170 Q 310 175 320 170" fill="none" stroke="#333" stroke-width="2"/>
    
    <!-- Whiskers -->
    <path d="M 290 165 L 280 160" stroke="#333" stroke-width="1"/>
    <path d="M 290 170 L 280 170" stroke="#333" stroke-width="1"/>
    <path d="M 290 175 L 280 180" stroke="#333" stroke-width="1"/>
    <path d="M 320 165 L 330 160" stroke="#333" stroke-width="1"/>
    <path d="M 320 170 L 330 170" stroke="#333" stroke-width="1"/>
    <path d="M 320 175 L 330 180" stroke="#333" stroke-width="1"/>
    
    <!-- Tail -->
    <path d="M 125 190 Q 85 185 60 200 Q 70 215 105 210" fill="white" stroke="#333" stroke-width="2"/>
    
    <!-- Tail tuft -->
    <ellipse cx="65" cy="205" rx="8" ry="12" fill="white" stroke="#333" stroke-width="2"/>
    
    <!-- Body pattern -->
    <path d="M 150 170 Q 160 165 170 170" fill="none" stroke="#333" stroke-width="1"/>
    <path d="M 160 180 Q 170 175 180 180" fill="none" stroke="#333" stroke-width="1"/>
    <path d="M 170 190 Q 180 185 190 190" fill="none" stroke="#333" stroke-width="1"/>
    <path d="M 180 200 Q 190 195 200 200" fill="none" stroke="#333" stroke-width="1"/>
    
    <!-- Shoulder muscles -->
    <ellipse cx="230" cy="170" rx="20" ry="15" fill="white" stroke="#333" stroke-width="1"/>
    
    <!-- Neck connection -->
    <path d="M 245 175 Q 255 165 265 170" fill="none" stroke="#333" stroke-width="4"/>
    
    <!-- Additional mane strands -->
    <path d="M 210 150 L 200 145" stroke="#333" stroke-width="1"/>
    <path d="M 215 160 L 205 155" stroke="#333" stroke-width="1"/>
    <path d="M 220 170 L 210 165" stroke="#333" stroke-width="1"/>
    <path d="M 320 150 L 330 145" stroke="#333" stroke-width="1"/>
    <path d="M 315 160 L 325 155" stroke="#333" stroke-width="1"/>
    <path d="M 310 170 L 320 165" stroke="#333" stroke-width="1"/>
</svg>
