<svg width="400" height="300" viewBox="0 0 400 300" xmlns="http://www.w3.org/2000/svg">
    <!-- Giant Ground Sloth body -->
    <ellipse cx="200" cy="200" rx="100" ry="60" fill="white" stroke="#333" stroke-width="2"/>
    
    <!-- Head -->
    <ellipse cx="280" cy="160" rx="40" ry="35" fill="white" stroke="#333" stroke-width="2"/>
    
    <!-- Long snout -->
    <ellipse cx="315" cy="165" rx="18" ry="12" fill="white" stroke="#333" stroke-width="2"/>
    
    <!-- Massive front legs with huge claws -->
    <rect x="220" y="230" width="25" height="45" fill="white" stroke="#333" stroke-width="2"/>
    <rect x="255" y="230" width="25" height="45" fill="white" stroke="#333" stroke-width="2"/>
    
    <!-- Back legs -->
    <rect x="150" y="240" width="20" height="35" fill="white" stroke="#333" stroke-width="2"/>
    <rect x="180" y="240" width="20" height="35" fill="white" stroke="#333" stroke-width="2"/>
    
    <!-- Enormous front claws -->
    <path d="M 230 275 L 220 295" stroke="#333" stroke-width="6" stroke-linecap="round"/>
    <path d="M 240 275 L 230 295" stroke="#333" stroke-width="6" stroke-linecap="round"/>
    <path d="M 250 275 L 245 295" stroke="#333" stroke-width="6" stroke-linecap="round"/>
    
    <path d="M 265 275 L 255 295" stroke="#333" stroke-width="6" stroke-linecap="round"/>
    <path d="M 275 275 L 265 295" stroke="#333" stroke-width="6" stroke-linecap="round"/>
    <path d="M 285 275 L 280 295" stroke="#333" stroke-width="6" stroke-linecap="round"/>
    
    <!-- Back feet -->
    <ellipse cx="160" cy="280" rx="12" ry="6" fill="white" stroke="#333" stroke-width="2"/>
    <ellipse cx="190" cy="280" rx="12" ry="6" fill="white" stroke="#333" stroke-width="2"/>
    
    <!-- Small ears -->
    <ellipse cx="265" cy="140" rx="8" ry="12" fill="white" stroke="#333" stroke-width="2"/>
    <ellipse cx="295" cy="140" rx="8" ry="12" fill="white" stroke="#333" stroke-width="2"/>
    
    <!-- Small eyes -->
    <circle cx="285" cy="155" r="4" fill="white" stroke="#333" stroke-width="2"/>
    <circle cx="295" cy="155" r="4" fill="white" stroke="#333" stroke-width="2"/>
    
    <!-- Nose -->
    <circle cx="325" cy="165" r="3" fill="white" stroke="#333" stroke-width="2"/>
    
    <!-- Mouth -->
    <path d="M 315 175 Q 320 180 325 175" fill="none" stroke="#333" stroke-width="2"/>
    
    <!-- Thick neck -->
    <path d="M 260 175 Q 240 185 220 195" fill="none" stroke="#333" stroke-width="8"/>
    
    <!-- Massive tail -->
    <path d="M 100 200 Q 50 190 30 210 Q 40 230 80 225 Q 90 215 100 210 Z" fill="white" stroke="#333" stroke-width="2"/>
    
    <!-- Thick fur texture -->
    <path d="M 140 170 L 130 165" stroke="#333" stroke-width="2"/>
    <path d="M 150 180 L 140 175" stroke="#333" stroke-width="2"/>
    <path d="M 160 190 L 150 185" stroke="#333" stroke-width="2"/>
    <path d="M 170 200 L 160 195" stroke="#333" stroke-width="2"/>
    <path d="M 180 210 L 170 205" stroke="#333" stroke-width="2"/>
    <path d="M 190 220 L 180 215" stroke="#333" stroke-width="2"/>
    
    <path d="M 250 150 L 240 145" stroke="#333" stroke-width="2"/>
    <path d="M 260 160 L 250 155" stroke="#333" stroke-width="2"/>
    <path d="M 270 170 L 260 165" stroke="#333" stroke-width="2"/>
    <path d="M 280 180 L 270 175" stroke="#333" stroke-width="2"/>
    
    <!-- Shoulder hump -->
    <ellipse cx="220" cy="170" rx="25" ry="15" fill="white" stroke="#333" stroke-width="2"/>
    
    <!-- Additional fur patterns -->
    <path d="M 160 160 Q 170 155 180 160" fill="none" stroke="#333" stroke-width="1"/>
    <path d="M 180 170 Q 190 165 200 170" fill="none" stroke="#333" stroke-width="1"/>
    <path d="M 200 180 Q 210 175 220 180" fill="none" stroke="#333" stroke-width="1"/>
    <path d="M 140 190 Q 150 185 160 190" fill="none" stroke="#333" stroke-width="1"/>
    <path d="M 160 200 Q 170 195 180 200" fill="none" stroke="#333" stroke-width="1"/>
    
    <!-- Belly line -->
    <path d="M 120 220 Q 160 230 200 225 Q 240 230 280 220" fill="none" stroke="#333" stroke-width="1"/>
    
    <!-- Powerful arm muscles -->
    <ellipse cx="240" cy="200" rx="20" ry="30" fill="white" stroke="#333" stroke-width="1"/>
    <ellipse cx="270" cy="200" rx="20" ry="30" fill="white" stroke="#333" stroke-width="1"/>
</svg>
