<svg width="400" height="300" viewBox="0 0 400 300" xmlns="http://www.w3.org/2000/svg">
    <!-- Elk body -->
    <ellipse cx="200" cy="200" rx="80" ry="50" fill="white" stroke="#333" stroke-width="2"/>
    
    <!-- Elk head -->
    <ellipse cx="270" cy="160" rx="30" ry="35" fill="white" stroke="#333" stroke-width="2"/>
    
    <!-- Snout -->
    <ellipse cx="295" cy="170" rx="12" ry="8" fill="white" stroke="#333" stroke-width="2"/>
    
    <!-- Massive antlers -->
    <!-- Main antler beams -->
    <path d="M 260 130 Q 240 100 220 80 Q 200 90 180 100" fill="none" stroke="#333" stroke-width="4"/>
    <path d="M 280 130 Q 300 100 320 80 Q 340 90 360 100" fill="none" stroke="#333" stroke-width="4"/>
    
    <!-- Antler tines (branches) -->
    <path d="M 240 95 L 235 85" stroke="#333" stroke-width="3"/>
    <path d="M 235 90 L 225 85" stroke="#333" stroke-width="3"/>
    <path d="M 225 95 L 220 80" stroke="#333" stroke-width="3"/>
    <path d="M 215 90 L 205 85" stroke="#333" stroke-width="3"/>
    <path d="M 200 95 L 190 90" stroke="#333" stroke-width="3"/>
    <path d="M 190 100 L 175 95" stroke="#333" stroke-width="3"/>
    
    <path d="M 300 95 L 305 85" stroke="#333" stroke-width="3"/>
    <path d="M 305 90 L 315 85" stroke="#333" stroke-width="3"/>
    <path d="M 315 95 L 320 80" stroke="#333" stroke-width="3"/>
    <path d="M 325 90 L 335 85" stroke="#333" stroke-width="3"/>
    <path d="M 340 95 L 350 90" stroke="#333" stroke-width="3"/>
    <path d="M 350 100 L 365 95" stroke="#333" stroke-width="3"/>
    
    <!-- Legs -->
    <rect x="160" y="230" width="15" height="40" fill="white" stroke="#333" stroke-width="2"/>
    <rect x="185" y="230" width="15" height="40" fill="white" stroke="#333" stroke-width="2"/>
    <rect x="210" y="230" width="15" height="40" fill="white" stroke="#333" stroke-width="2"/>
    <rect x="235" y="230" width="15" height="40" fill="white" stroke="#333" stroke-width="2"/>
    
    <!-- Hooves -->
    <ellipse cx="167" cy="275" rx="8" ry="4" fill="white" stroke="#333" stroke-width="2"/>
    <ellipse cx="192" cy="275" rx="8" ry="4" fill="white" stroke="#333" stroke-width="2"/>
    <ellipse cx="217" cy="275" rx="8" ry="4" fill="white" stroke="#333" stroke-width="2"/>
    <ellipse cx="242" cy="275" rx="8" ry="4" fill="white" stroke="#333" stroke-width="2"/>
    
    <!-- Ears -->
    <ellipse cx="255" cy="140" rx="8" ry="15" fill="white" stroke="#333" stroke-width="2"/>
    <ellipse cx="285" cy="140" rx="8" ry="15" fill="white" stroke="#333" stroke-width="2"/>
    
    <!-- Eye -->
    <circle cx="275" cy="155" r="4" fill="white" stroke="#333" stroke-width="2"/>
    
    <!-- Nose -->
    <ellipse cx="300" cy="175" rx="3" ry="2" fill="white" stroke="#333" stroke-width="2"/>
    
    <!-- Mouth -->
    <path d="M 295 180 Q 300 185 305 180" fill="none" stroke="#333" stroke-width="2"/>
    
    <!-- Neck -->
    <path d="M 250 180 Q 230 190 220 200" fill="none" stroke="#333" stroke-width="6"/>
    
    <!-- Tail -->
    <ellipse cx="130" cy="205" rx="15" ry="6" fill="white" stroke="#333" stroke-width="2"/>
    
    <!-- Mane -->
    <path d="M 250 140 Q 240 135 245 150" fill="white" stroke="#333" stroke-width="2"/>
    <path d="M 260 135 Q 250 130 255 145" fill="white" stroke="#333" stroke-width="2"/>
    <path d="M 270 135 Q 260 130 265 145" fill="white" stroke="#333" stroke-width="2"/>
    <path d="M 280 135 Q 270 130 275 145" fill="white" stroke="#333" stroke-width="2"/>
    
    <!-- Body pattern -->
    <path d="M 150 180 Q 160 175 170 180" fill="none" stroke="#333" stroke-width="1"/>
    <path d="M 180 185 Q 190 180 200 185" fill="none" stroke="#333" stroke-width="1"/>
    <path d="M 210 180 Q 220 175 230 180" fill="none" stroke="#333" stroke-width="1"/>
</svg>
