<svg width="400" height="300" viewBox="0 0 400 300" xmlns="http://www.w3.org/2000/svg">
    <!-- Moa body -->
    <ellipse cx="200" cy="220" rx="70" ry="45" fill="white" stroke="#333" stroke-width="2"/>
    
    <!-- Long neck -->
    <path d="M 220 180 Q 240 140 260 100" fill="none" stroke="#333" stroke-width="12"/>
    
    <!-- Head -->
    <ellipse cx="270" cy="90" rx="20" ry="25" fill="white" stroke="#333" stroke-width="2"/>
    
    <!-- Beak -->
    <path d="M 285 95 Q 300 90 295 105 Q 290 110 285 105 Z" fill="white" stroke="#333" stroke-width="2"/>
    
    <!-- Massive legs -->
    <rect x="170" y="250" width="20" height="60" fill="white" stroke="#333" stroke-width="2"/>
    <rect x="210" y="250" width="20" height="60" fill="white" stroke="#333" stroke-width="2"/>
    
    <!-- Large three-toed feet -->
    <ellipse cx="180" cy="315" rx="15" ry="8" fill="white" stroke="#333" stroke-width="2"/>
    <ellipse cx="220" cy="315" rx="15" ry="8" fill="white" stroke="#333" stroke-width="2"/>
    
    <!-- Three toes with claws -->
    <path d="M 170 310 L 165 320" stroke="#333" stroke-width="3" stroke-linecap="round"/>
    <path d="M 180 310 L 175 320" stroke="#333" stroke-width="3" stroke-linecap="round"/>
    <path d="M 190 310 L 195 320" stroke="#333" stroke-width="3" stroke-linecap="round"/>
    
    <path d="M 210 310 L 205 320" stroke="#333" stroke-width="3" stroke-linecap="round"/>
    <path d="M 220 310 L 215 320" stroke="#333" stroke-width="3" stroke-linecap="round"/>
    <path d="M 230 310 L 235 320" stroke="#333" stroke-width="3" stroke-linecap="round"/>
    
    <!-- Eye -->
    <circle cx="275" cy="85" r="3" fill="white" stroke="#333" stroke-width="2"/>
    
    <!-- Nostril -->
    <circle cx="290" cy="95" r="1" fill="white" stroke="#333" stroke-width="1"/>
    
    <!-- Wing stubs (vestigial) -->
    <ellipse cx="160" cy="200" rx="15" ry="25" fill="white" stroke="#333" stroke-width="2"/>
    <ellipse cx="240" cy="200" rx="15" ry="25" fill="white" stroke="#333" stroke-width="2"/>
    
    <!-- Feather patterns on body -->
    <path d="M 150 200 Q 155 195 160 200" fill="none" stroke="#333" stroke-width="1"/>
    <path d="M 160 210 Q 165 205 170 210" fill="none" stroke="#333" stroke-width="1"/>
    <path d="M 170 220 Q 175 215 180 220" fill="none" stroke="#333" stroke-width="1"/>
    <path d="M 180 230 Q 185 225 190 230" fill="none" stroke="#333" stroke-width="1"/>
    
    <path d="M 220 200 Q 225 195 230 200" fill="none" stroke="#333" stroke-width="1"/>
    <path d="M 230 210 Q 235 205 240 210" fill="none" stroke="#333" stroke-width="1"/>
    <path d="M 240 220 Q 245 215 250 220" fill="none" stroke="#333" stroke-width="1"/>
    <path d="M 210 230 Q 215 225 220 230" fill="none" stroke="#333" stroke-width="1"/>
    
    <!-- Neck feathers -->
    <path d="M 230 120 Q 235 115 240 120" fill="none" stroke="#333" stroke-width="1"/>
    <path d="M 240 130 Q 245 125 250 130" fill="none" stroke="#333" stroke-width="1"/>
    <path d="M 250 140 Q 255 135 260 140" fill="none" stroke="#333" stroke-width="1"/>
    <path d="M 225 150 Q 230 145 235 150" fill="none" stroke="#333" stroke-width="1"/>
    <path d="M 235 160 Q 240 155 245 160" fill="none" stroke="#333" stroke-width="1"/>
    
    <!-- Tail feathers -->
    <path d="M 130 220 Q 100 210 80 225 Q 90 240 120 235" fill="white" stroke="#333" stroke-width="2"/>
    <path d="M 125 225 Q 95 215 75 230 Q 85 245 115 240" fill="white" stroke="#333" stroke-width="2"/>
    <path d="M 120 230 Q 90 220 70 235 Q 80 250 110 245" fill="white" stroke="#333" stroke-width="2"/>
    
    <!-- Feather details on tail -->
    <path d="M 110 225 L 100 220" stroke="#333" stroke-width="1"/>
    <path d="M 105 230 L 95 225" stroke="#333" stroke-width="1"/>
    <path d="M 100 235 L 90 230" stroke="#333" stroke-width="1"/>
    <path d="M 95 240 L 85 235" stroke="#333" stroke-width="1"/>
    
    <!-- Thigh muscles -->
    <ellipse cx="185" cy="235" rx="12" ry="20" fill="white" stroke="#333" stroke-width="1"/>
    <ellipse cx="215" cy="235" rx="12" ry="20" fill="white" stroke="#333" stroke-width="1"/>
    
    <!-- Head crest -->
    <path d="M 265 75 Q 270 65 280 70 Q 275 80 270 85" fill="white" stroke="#333" stroke-width="2"/>
    
    <!-- Breast feathers -->
    <path d="M 180 190 Q 190 185 200 190 Q 210 185 220 190" fill="none" stroke="#333" stroke-width="1"/>
    <path d="M 175 200 Q 185 195 200 200 Q 215 195 225 200" fill="none" stroke="#333" stroke-width="1"/>
    
    <!-- Wing feather details -->
    <path d="M 155 195 L 150 190" stroke="#333" stroke-width="1"/>
    <path d="M 160 205 L 155 200" stroke="#333" stroke-width="1"/>
    <path d="M 165 215 L 160 210" stroke="#333" stroke-width="1"/>
    
    <path d="M 245 195 L 250 190" stroke="#333" stroke-width="1"/>
    <path d="M 240 205 L 245 200" stroke="#333" stroke-width="1"/>
    <path d="M 235 215 L 240 210" stroke="#333" stroke-width="1"/>
</svg>
