<svg width="400" height="300" viewBox="0 0 400 300" xmlns="http://www.w3.org/2000/svg">
    <!-- Pigeon body - streamlined -->
    <ellipse cx="200" cy="185" rx="55" ry="30" fill="white" stroke="#333" stroke-width="2"/>
    
    <!-- Breast -->
    <ellipse cx="215" cy="195" rx="35" ry="20" fill="white" stroke="#333" stroke-width="2"/>
    
    <!-- Pigeon head - smaller, more proportional -->
    <ellipse cx="265" cy="155" rx="20" ry="22" fill="white" stroke="#333" stroke-width="2"/>
    
    <!-- Small beak -->
    <path d="M 280 155 Q 290 153 288 158 Q 285 162 280 160 Z" fill="white" stroke="#333" stroke-width="2"/>
    
    <!-- Long, pointed wings -->
    <ellipse cx="165" cy="170" rx="45" ry="20" fill="white" stroke="#333" stroke-width="2" transform="rotate(-10 165 170)"/>
    <ellipse cx="235" cy="170" rx="45" ry="20" fill="white" stroke="#333" stroke-width="2" transform="rotate(10 235 170)"/>
    
    <!-- Wing feather details -->
    <path d="M 145 155 L 135 150" stroke="#333" stroke-width="1"/>
    <path d="M 150 165 L 140 160" stroke="#333" stroke-width="1"/>
    <path d="M 155 175 L 145 170" stroke="#333" stroke-width="1"/>
    <path d="M 160 185 L 150 180" stroke="#333" stroke-width="1"/>
    
    <path d="M 255 155 L 265 150" stroke="#333" stroke-width="1"/>
    <path d="M 250 165 L 260 160" stroke="#333" stroke-width="1"/>
    <path d="M 245 175 L 255 170" stroke="#333" stroke-width="1"/>
    <path d="M 240 185 L 250 180" stroke="#333" stroke-width="1"/>
    
    <!-- Legs -->
    <line x1="185" y1="205" x2="185" y2="230" stroke="#333" stroke-width="3"/>
    <line x1="215" y1="205" x2="215" y2="230" stroke="#333" stroke-width="3"/>
    
    <!-- Feet -->
    <path d="M 180 230 L 175 235 M 185 230 L 185 235 M 190 230 L 195 235" stroke="#333" stroke-width="2"/>
    <path d="M 210 230 L 205 235 M 215 230 L 215 235 M 220 230 L 225 235" stroke="#333" stroke-width="2"/>
    
    <!-- Eye -->
    <circle cx="265" cy="145" r="3" fill="white" stroke="#333" stroke-width="2"/>
    
    <!-- Tail feathers -->
    <path d="M 140 180 Q 110 175 90 185 Q 100 195 130 190 Q 135 185 140 185 Z" fill="white" stroke="#333" stroke-width="2"/>
    <path d="M 135 185 Q 105 180 85 190 Q 95 200 125 195 Q 130 190 135 190 Z" fill="white" stroke="#333" stroke-width="2"/>
    
    <!-- Neck -->
    <path d="M 240 165 Q 250 160 255 155" fill="none" stroke="#333" stroke-width="3"/>
    
    <!-- Chest marking -->
    <ellipse cx="200" cy="170" rx="15" ry="8" fill="white" stroke="#333" stroke-width="1"/>
    
    <!-- Wing pattern -->
    <path d="M 160 155 Q 165 150 170 155" fill="none" stroke="#333" stroke-width="1"/>
    <path d="M 170 165 Q 175 160 180 165" fill="none" stroke="#333" stroke-width="1"/>
    <path d="M 165 175 Q 170 170 175 175" fill="none" stroke="#333" stroke-width="1"/>
    
    <path d="M 240 155 Q 235 150 230 155" fill="none" stroke="#333" stroke-width="1"/>
    <path d="M 230 165 Q 225 160 220 165" fill="none" stroke="#333" stroke-width="1"/>
    <path d="M 235 175 Q 230 170 225 175" fill="none" stroke="#333" stroke-width="1"/>
    
    <!-- Head crest -->
    <path d="M 250 130 Q 255 125 265 130" fill="white" stroke="#333" stroke-width="1"/>
</svg>
