<svg width="400" height="300" viewBox="0 0 400 300" xmlns="http://www.w3.org/2000/svg">
    <!-- Pteranodon body -->
    <ellipse cx="200" cy="180" rx="40" ry="25" fill="white" stroke="#333" stroke-width="2"/>
    
    <!-- Head with distinctive crest -->
    <ellipse cx="240" cy="150" rx="25" ry="20" fill="white" stroke="#333" stroke-width="2"/>
    
    <!-- Large backward-pointing crest -->
    <path d="M 220 140 Q 200 120 180 125 Q 185 145 200 150 Q 215 145 220 140 Z" fill="white" stroke="#333" stroke-width="2"/>
    
    <!-- Long beak -->
    <path d="M 265 150 Q 300 145 310 155 Q 300 165 275 160 Q 265 155 265 150 Z" fill="white" stroke="#333" stroke-width="2"/>
    
    <!-- Massive wings -->
    <!-- Left wing -->
    <path d="M 180 170 Q 100 140 50 160 Q 40 180 60 200 Q 120 190 180 180 Z" fill="white" stroke="#333" stroke-width="2"/>
    <!-- Right wing -->
    <path d="M 220 170 Q 300 140 350 160 Q 360 180 340 200 Q 280 190 220 180 Z" fill="white" stroke="#333" stroke-width="2"/>
    
    <!-- Wing membrane structure -->
    <path d="M 160 175 Q 110 155 70 170" fill="none" stroke="#333" stroke-width="1"/>
    <path d="M 150 180 Q 100 165 65 180" fill="none" stroke="#333" stroke-width="1"/>
    <path d="M 145 185 Q 95 175 60 190" fill="none" stroke="#333" stroke-width="1"/>
    
    <path d="M 240 175 Q 290 155 330 170" fill="none" stroke="#333" stroke-width="1"/>
    <path d="M 250 180 Q 300 165 335 180" fill="none" stroke="#333" stroke-width="1"/>
    <path d="M 255 185 Q 305 175 340 190" fill="none" stroke="#333" stroke-width="1"/>
    
    <!-- Wing fingers (pterosaur wing structure) -->
    <path d="M 170 175 L 60 170" stroke="#333" stroke-width="2"/>
    <path d="M 230 175 L 340 170" stroke="#333" stroke-width="2"/>
    
    <!-- Legs (small compared to wings) -->
    <path d="M 190 200 L 185 220" stroke="#333" stroke-width="3"/>
    <path d="M 210 200 L 215 220" stroke="#333" stroke-width="3"/>
    
    <!-- Feet with claws -->
    <path d="M 180 220 L 175 225 M 185 220 L 180 225 M 190 220 L 195 225" stroke="#333" stroke-width="2"/>
    <path d="M 210 220 L 205 225 M 215 220 L 210 225 M 220 220 L 225 225" stroke="#333" stroke-width="2"/>
    
    <!-- Eye -->
    <circle cx="245" cy="145" r="4" fill="white" stroke="#333" stroke-width="2"/>
    
    <!-- Neck -->
    <path d="M 225 160 Q 215 170 205 175" fill="none" stroke="#333" stroke-width="4"/>
    
    <!-- Tail (very short) -->
    <ellipse cx="165" cy="185" rx="8" ry="4" fill="white" stroke="#333" stroke-width="2"/>
    
    <!-- Crest details -->
    <path d="M 210 135 Q 195 125 185 130" fill="none" stroke="#333" stroke-width="1"/>
    <path d="M 205 140 Q 190 130 180 135" fill="none" stroke="#333" stroke-width="1"/>
    
    <!-- Beak tip -->
    <circle cx="305" cy="155" r="2" fill="white" stroke="#333" stroke-width="1"/>
    
    <!-- Wing claws (pterosaur had claws on wings) -->
    <circle cx="90" cy="160" r="3" fill="white" stroke="#333" stroke-width="2"/>
    <circle cx="310" cy="160" r="3" fill="white" stroke="#333" stroke-width="2"/>
    
    <!-- Body texture -->
    <path d="M 185 170 Q 190 165 195 170" fill="none" stroke="#333" stroke-width="1"/>
    <path d="M 205 175 Q 210 170 215 175" fill="none" stroke="#333" stroke-width="1"/>
    
    <!-- Wing membrane texture -->
    <path d="M 140 185 Q 100 180 80 185" fill="none" stroke="#333" stroke-width="0.5"/>
    <path d="M 135 190 Q 95 185 75 190" fill="none" stroke="#333" stroke-width="0.5"/>
    <path d="M 260 185 Q 300 180 320 185" fill="none" stroke="#333" stroke-width="0.5"/>
    <path d="M 265 190 Q 305 185 325 190" fill="none" stroke="#333" stroke-width="0.5"/>
</svg>
