<svg width="400" height="300" viewBox="0 0 400 300" xmlns="http://www.w3.org/2000/svg">
    <!-- Cat body -->
    <ellipse cx="200" cy="180" rx="100" ry="50" fill="white" stroke="#333" stroke-width="2"/>
    
    <!-- Cat head -->
    <circle cx="280" cy="140" r="45" fill="white" stroke="#333" stroke-width="2"/>
    
    <!-- Legs -->
    <rect x="160" y="210" width="15" height="40" fill="white" stroke="#333" stroke-width="2"/>
    <rect x="190" y="210" width="15" height="40" fill="white" stroke="#333" stroke-width="2"/>
    <rect x="220" y="210" width="15" height="40" fill="white" stroke="#333" stroke-width="2"/>
    <rect x="250" y="210" width="15" height="40" fill="white" stroke="#333" stroke-width="2"/>
    
    <!-- Paws -->
    <circle cx="167" cy="255" r="8" fill="white" stroke="#333" stroke-width="2"/>
    <circle cx="197" cy="255" r="8" fill="white" stroke="#333" stroke-width="2"/>
    <circle cx="227" cy="255" r="8" fill="white" stroke="#333" stroke-width="2"/>
    <circle cx="257" cy="255" r="8" fill="white" stroke="#333" stroke-width="2"/>
    
    <!-- Saber teeth -->
    <path d="M 300 155 L 305 180" stroke="#333" stroke-width="4" stroke-linecap="round" fill="white"/>
    <path d="M 310 155 L 315 180" stroke="#333" stroke-width="4" stroke-linecap="round" fill="white"/>
    
    <!-- Ears -->
    <polygon points="260,110 250,130 275,125" fill="white" stroke="#333" stroke-width="2"/>
    <polygon points="295,110 305,130 285,125" fill="white" stroke="#333" stroke-width="2"/>
    
    <!-- Eyes -->
    <circle cx="270" cy="130" r="4" fill="white" stroke="#333" stroke-width="2"/>
    <circle cx="290" cy="130" r="4" fill="white" stroke="#333" stroke-width="2"/>
    
    <!-- Nose -->
    <polygon points="305,145 300,150 310,150" fill="white" stroke="#333" stroke-width="2"/>
    
    <!-- Mouth -->
    <path d="M 300 155 Q 305 160 310 155" fill="none" stroke="#333" stroke-width="2"/>
    
    <!-- Tail -->
    <path d="M 100 180 Q 60 170 40 190 Q 50 210 80 200" fill="white" stroke="#333" stroke-width="2"/>
    
    <!-- Spots pattern -->
    <circle cx="170" cy="160" r="8" fill="white" stroke="#333" stroke-width="1"/>
    <circle cx="210" cy="170" r="6" fill="white" stroke="#333" stroke-width="1"/>
    <circle cx="240" cy="160" r="7" fill="white" stroke="#333" stroke-width="1"/>
    <circle cx="260" cy="170" r="5" fill="white" stroke="#333" stroke-width="1"/>
</svg>
