<svg width="400" height="300" viewBox="0 0 400 300" xmlns="http://www.w3.org/2000/svg">
    <!-- Tiger body - dog-like proportions -->
    <ellipse cx="200" cy="180" rx="80" ry="40" fill="white" stroke="#333" stroke-width="2"/>
    
    <!-- Tiger head - more elongated -->
    <ellipse cx="285" cy="150" rx="30" ry="35" fill="white" stroke="#333" stroke-width="2"/>
    
    <!-- Distinctive long snout -->
    <ellipse cx="320" cy="155" rx="18" ry="12" fill="white" stroke="#333" stroke-width="2"/>
    
    <!-- Legs - more dog-like -->
    <ellipse cx="170" cy="235" rx="10" ry="25" fill="white" stroke="#333" stroke-width="2"/>
    <ellipse cx="195" cy="235" rx="10" ry="25" fill="white" stroke="#333" stroke-width="2"/>
    <ellipse cx="220" cy="235" rx="10" ry="25" fill="white" stroke="#333" stroke-width="2"/>
    <ellipse cx="245" cy="235" rx="10" ry="25" fill="white" stroke="#333" stroke-width="2"/>
    
    <!-- Distinctive stripes on back and rump -->
    <path d="M 145 165 Q 150 160 155 165 Q 150 170 145 175 Z" fill="white" stroke="#333" stroke-width="2"/>
    <path d="M 165 160 Q 170 155 175 160 Q 170 165 165 170 Z" fill="white" stroke="#333" stroke-width="2"/>
    <path d="M 185 165 Q 190 160 195 165 Q 190 170 185 175 Z" fill="white" stroke="#333" stroke-width="2"/>
    <path d="M 205 160 Q 210 155 215 160 Q 210 165 205 170 Z" fill="white" stroke="#333" stroke-width="2"/>
    <path d="M 225 165 Q 230 160 235 165 Q 230 170 225 175 Z" fill="white" stroke="#333" stroke-width="2"/>
    <path d="M 245 160 Q 250 155 255 160 Q 250 165 245 170 Z" fill="white" stroke="#333" stroke-width="2"/>
    <path d="M 135 175 Q 140 170 145 175 Q 140 180 135 185 Z" fill="white" stroke="#333" stroke-width="2"/>
    <path d="M 155 180 Q 160 175 165 180 Q 160 185 155 190 Z" fill="white" stroke="#333" stroke-width="2"/>
    <path d="M 175 175 Q 180 170 185 175 Q 180 180 175 185 Z" fill="white" stroke="#333" stroke-width="2"/>
    <path d="M 195 180 Q 200 175 205 180 Q 200 185 195 190 Z" fill="white" stroke="#333" stroke-width="2"/>
    <path d="M 215 175 Q 220 170 225 175 Q 220 180 215 185 Z" fill="white" stroke="#333" stroke-width="2"/>
    <path d="M 235 180 Q 240 175 245 180 Q 240 185 235 190 Z" fill="white" stroke="#333" stroke-width="2"/>
    
    <!-- Ears -->
    <polygon points="265,125 260,135 275,135" fill="white" stroke="#333" stroke-width="2"/>
    <polygon points="290,125 295,135 280,135" fill="white" stroke="#333" stroke-width="2"/>
    
    <!-- Eyes -->
    <circle cx="275" cy="145" r="3" fill="white" stroke="#333" stroke-width="2"/>
    <circle cx="285" cy="145" r="3" fill="white" stroke="#333" stroke-width="2"/>
    
    <!-- Nose -->
    <circle cx="315" cy="150" r="2" fill="white" stroke="#333" stroke-width="2"/>
    
    <!-- Mouth -->
    <path d="M 310 160 Q 315 165 320 160" fill="none" stroke="#333" stroke-width="2"/>
    
    <!-- Tail with stripes -->
    <ellipse cx="120" cy="185" rx="40" ry="8" fill="white" stroke="#333" stroke-width="2"/>
    <rect x="105" y="180" width="4" height="10" fill="white" stroke="#333" stroke-width="1"/>
    <rect x="115" y="180" width="4" height="10" fill="white" stroke="#333" stroke-width="1"/>
    <rect x="125" y="180" width="4" height="10" fill="white" stroke="#333" stroke-width="1"/>
    <rect x="135" y="180" width="4" height="10" fill="white" stroke="#333" stroke-width="1"/>
    
    <!-- Paws -->
    <ellipse cx="167" cy="255" rx="8" ry="5" fill="white" stroke="#333" stroke-width="2"/>
    <ellipse cx="192" cy="255" rx="8" ry="5" fill="white" stroke="#333" stroke-width="2"/>
    <ellipse cx="217" cy="255" rx="8" ry="5" fill="white" stroke="#333" stroke-width="2"/>
    <ellipse cx="242" cy="255" rx="8" ry="5" fill="white" stroke="#333" stroke-width="2"/>
</svg>
