<svg width="400" height="300" viewBox="0 0 400 300" xmlns="http://www.w3.org/2000/svg">
    <!-- Tiger body -->
    <ellipse cx="200" cy="180" rx="90" ry="45" fill="white" stroke="#333" stroke-width="2"/>
    
    <!-- Tiger head -->
    <ellipse cx="280" cy="150" rx="35" ry="40" fill="white" stroke="#333" stroke-width="2"/>
    
    <!-- Snout -->
    <ellipse cx="310" cy="155" rx="15" ry="10" fill="white" stroke="#333" stroke-width="2"/>
    
    <!-- Legs -->
    <rect x="160" y="210" width="15" height="40" fill="white" stroke="#333" stroke-width="2"/>
    <rect x="185" y="210" width="15" height="40" fill="white" stroke="#333" stroke-width="2"/>
    <rect x="210" y="210" width="15" height="40" fill="white" stroke="#333" stroke-width="2"/>
    <rect x="235" y="210" width="15" height="40" fill="white" stroke="#333" stroke-width="2"/>
    
    <!-- Distinctive stripes on back -->
    <rect x="140" y="160" width="8" height="40" fill="white" stroke="#333" stroke-width="2"/>
    <rect x="155" y="155" width="8" height="45" fill="white" stroke="#333" stroke-width="2"/>
    <rect x="170" y="160" width="8" height="40" fill="white" stroke="#333" stroke-width="2"/>
    <rect x="185" y="155" width="8" height="45" fill="white" stroke="#333" stroke-width="2"/>
    <rect x="200" y="160" width="8" height="40" fill="white" stroke="#333" stroke-width="2"/>
    <rect x="215" y="155" width="8" height="45" fill="white" stroke="#333" stroke-width="2"/>
    <rect x="230" y="160" width="8" height="40" fill="white" stroke="#333" stroke-width="2"/>
    <rect x="245" y="155" width="8" height="45" fill="white" stroke="#333" stroke-width="2"/>
    
    <!-- Ears -->
    <polygon points="265,125 260,135 275,135" fill="white" stroke="#333" stroke-width="2"/>
    <polygon points="290,125 295,135 280,135" fill="white" stroke="#333" stroke-width="2"/>
    
    <!-- Eyes -->
    <circle cx="275" cy="145" r="3" fill="white" stroke="#333" stroke-width="2"/>
    <circle cx="285" cy="145" r="3" fill="white" stroke="#333" stroke-width="2"/>
    
    <!-- Nose -->
    <circle cx="315" cy="150" r="2" fill="white" stroke="#333" stroke-width="2"/>
    
    <!-- Mouth -->
    <path d="M 310 160 Q 315 165 320 160" fill="none" stroke="#333" stroke-width="2"/>
    
    <!-- Tail with stripes -->
    <ellipse cx="120" cy="185" rx="40" ry="8" fill="white" stroke="#333" stroke-width="2"/>
    <rect x="105" y="180" width="4" height="10" fill="white" stroke="#333" stroke-width="1"/>
    <rect x="115" y="180" width="4" height="10" fill="white" stroke="#333" stroke-width="1"/>
    <rect x="125" y="180" width="4" height="10" fill="white" stroke="#333" stroke-width="1"/>
    <rect x="135" y="180" width="4" height="10" fill="white" stroke="#333" stroke-width="1"/>
    
    <!-- Paws -->
    <ellipse cx="167" cy="255" rx="8" ry="5" fill="white" stroke="#333" stroke-width="2"/>
    <ellipse cx="192" cy="255" rx="8" ry="5" fill="white" stroke="#333" stroke-width="2"/>
    <ellipse cx="217" cy="255" rx="8" ry="5" fill="white" stroke="#333" stroke-width="2"/>
    <ellipse cx="242" cy="255" rx="8" ry="5" fill="white" stroke="#333" stroke-width="2"/>
</svg>
